<?xml version="1.0" encoding="utf-8"?>
<!-- Generator: Adobe Illustrator 22.0.1, SVG Export Plug-In . SVG Version: 6.00 Build 0)  -->
<svg version="1.1" id="Layer_1" xmlns="http://www.w3.org/2000/svg" xmlns:xlink="http://www.w3.org/1999/xlink" x="0px" y="0px"
	 viewBox="0 0 132 132" style="enable-background:new 0 0 132 132;" xml:space="preserve">
<style type="text/css">
	.st0{fill:#FFFFFF;}
	.st1{fill:#231F20;}
</style>
<g>
	<path class="st1" d="M52,74.2C52,82,58.3,88.3,66,88.3c7.8,0,14.1-6.3,14.1-14.1V46.7H52V74.2z M53.1,47.9h25.7v26.3
		c0,7.1-5.8,12.9-12.9,12.9c-7.1,0-12.9-5.8-12.9-12.9V47.9z M77.1,51.6h-1.7v-0.5h1.5v-0.8h-1.5v-0.4h1.6v-0.8h-2.4v3.2h2.5V51.6z
		 M57.8,52.4h0.7l1.1-3.2h-0.9L58.2,51l-0.6-1.8h-0.6L56.3,51l-0.6-1.8h-0.9l1.1,3.2h0.7l0.6-1.8L57.8,52.4z M76.4,40.1H77v0
		c1.3,0,2.3-1.1,2.3-2.4c0-1.3-1.1-2.4-2.4-2.4c-1.3,0-2.4,1.1-2.4,2.4c0,0.5,0.2,1,0.5,1.4c-1.8,0.5-3.1,2.1-3.3,4h-5.1v-1.9
		c0.7-0.1,1.4-0.4,1.9-1c0.7-0.7,1-1.6,1-2.5l0-0.6l-0.7,0c-0.8,0-1.6,0.3-2.2,0.8v-6c1-0.3,1.8-1.2,1.8-2.3c0-1.3-1.1-2.4-2.4-2.4
		c-1.3,0-2.4,1.1-2.4,2.4c0,1.1,0.8,2,1.8,2.3v1.9c-0.6-0.5-1.4-0.8-2.2-0.8l-0.7,0l0,0.6c0,1,0.3,1.8,1,2.5
		c0.5,0.5,1.2,0.8,1.9,0.9v5.9h-5.2c-0.2-1.9-1.6-3.4-3.4-4c0.3-0.4,0.4-0.9,0.4-1.4c0-1.3-1.1-2.4-2.4-2.4c-1.3,0-2.4,1.1-2.4,2.4
		c0,1.3,1.1,2.4,2.4,2.4h0.6c1.8,0,3.2,1.3,3.5,3H52v1.2h28.1v-1.2h-7.1C73.2,41.4,74.7,40.1,76.4,40.1 M77,36.6
		c0.6,0,1.2,0.5,1.2,1.2c0,0.6-0.5,1.2-1.2,1.2c-0.6,0-1.2-0.5-1.2-1.2C75.8,37.1,76.3,36.6,77,36.6 M67.3,39c0.3-0.3,0.6-0.5,1-0.6
		c-0.1,0.4-0.3,0.7-0.6,1c-0.3,0.3-0.6,0.5-1,0.6C66.8,39.6,67,39.3,67.3,39 M64.4,35.3c-0.3-0.3-0.5-0.6-0.6-1
		c0.4,0.1,0.7,0.3,1,0.6c0.3,0.3,0.5,0.6,0.6,1C65,35.8,64.6,35.6,64.4,35.3 M54.9,38.9c-0.6,0-1.2-0.5-1.2-1.2
		c0-0.6,0.5-1.2,1.2-1.2c0.6,0,1.2,0.5,1.2,1.2C56.1,38.4,55.6,38.9,54.9,38.9 M64.8,29.7c0-0.6,0.5-1.2,1.2-1.2
		c0.6,0,1.2,0.5,1.2,1.2c0,0.6-0.5,1.2-1.2,1.2C65.4,30.9,64.8,30.4,64.8,29.7"/>
	<path class="st1" d="M64.9,84c0-0.6,0.5-1.1,1.1-1.1c0.6,0,1.1,0.5,1.1,1.1c0,0.6-0.5,1.1-1.1,1.1C65.4,85.1,64.9,84.6,64.9,84"/>
	<path class="st1" d="M24.2,71.1c0,0.3,0.3,0.6,0.6,0.6c0.3,0,0.6-0.3,0.6-0.6c0-0.3-0.3-0.6-0.6-0.6C24.5,70.5,24.2,70.8,24.2,71.1
		"/>
	<path class="st1" d="M42.4,66.9h-7.5c-0.7-0.9-1.8-1.5-3-1.5h-3.1c-4.8,0-8.6,3.9-8.6,8.6v3.4c-1.3-0.2-2.6-0.7-3.6-1.7l-0.9,0.9
		c1.2,1.2,2.8,2,4.5,2.1c0.4,1.7,1.8,2.9,3.6,2.9c1.4,0,2.6-1.2,2.6-2.6v-0.3h-1.2v0.3c0,0.8-0.6,1.4-1.4,1.4c-1.1,0-2-0.7-2.3-1.7
		c1.4-0.1,2.6-0.6,3.7-1.4v-1.6c-1.1,1.1-2.4,1.7-3.9,1.8V74c0-4.1,3.3-7.4,7.4-7.4h3.1c1.5,0,2.7,1.2,2.7,2.7
		c0,2.6-2.1,4.8-4.8,4.8c-1,0-1.8-0.8-1.8-1.8h-1.2c0,1.7,1.4,3.1,3.1,3.1c3.3,0,6-2.7,6-6c0-0.4-0.1-0.9-0.2-1.3h6.8
		c3.1,0,5.5,2.5,5.5,5.5v13h-1.4l-0.7-2.5c-0.9-2.8-1.9-3-3.5-3h-5.6L36.5,80h-1.2l1.2,6.6H35l-3.8-7.9h-1.4l1.2,2.4l-2.9,5.5h-1.3
		l1.9-9.1h-1.2l-2.1,10.4h3.6l2.8-5.3l2.6,5.3h3.6l-1-5.5H40c0.6,0,1.2,0.5,1.2,1.2l-0.6,4.3h3.6l0.7-2.2l0.7,2.2h3.5V73.6
		C49.1,69.9,46.1,66.9,42.4,66.9 M44,84.5l-0.6,2.1h-1.7c0,0,0.3-2.1,0.4-2.7c0.1-1.3-0.6-1.6-0.6-1.6l1.4,0
		C42.9,82.3,44.8,82.2,44,84.5"/>
	<path class="st1" d="M107.2,70.5c-0.3,0-0.6,0.3-0.6,0.6c0,0.3,0.3,0.6,0.6,0.6c0.3,0,0.6-0.3,0.6-0.6
		C107.8,70.8,107.6,70.5,107.2,70.5"/>
	<path class="st1" d="M82.9,73.6v14.2h3.5l0.7-2.2l0.7,2.2h3.6l-0.6-4.3c0-0.6,0.5-1.2,1.2-1.2h3.1l-1,5.5h3.6l2.6-5.3l2.8,5.3h3.6
		l-2.1-10.4h-1.2l1.9,9.1h-1.3l-2.9-5.5l1.2-2.4h-1.4L97,86.6h-1.3l1.2-6.6h-1.2l-0.2,1.1h-5.6c-1.6,0-2.6,0.2-3.5,3l-0.7,2.5h-1.4
		v-13c0-3.1,2.5-5.5,5.5-5.5h6.8c-0.1,0.4-0.2,0.8-0.2,1.3c0,3.3,2.7,6,6,6c1.7,0,3.1-1.4,3.1-3.1h-1.2c0,1-0.8,1.8-1.8,1.8
		c-2.6,0-4.8-2.1-4.8-4.8c0-1.5,1.2-2.7,2.7-2.7h3.1c4.1,0,7.4,3.3,7.4,7.4v3.4c-1.4-0.1-2.8-0.7-3.9-1.8v1.6
		c1.1,0.8,2.4,1.3,3.7,1.4c-0.3,1-1.2,1.7-2.3,1.7c-0.8,0-1.4-0.6-1.4-1.4v-0.3h-1.2v0.3c0,1.4,1.2,2.6,2.6,2.6
		c1.8,0,3.2-1.2,3.6-2.9c1.7-0.2,3.3-0.9,4.5-2.1l-0.9-0.9c-1,1-2.3,1.6-3.6,1.7V74c0-4.8-3.9-8.6-8.6-8.6h-3.1
		c-1.2,0-2.3,0.6-3,1.5h-7.5C85.9,66.9,82.9,69.9,82.9,73.6 M89.1,82.3l1.4,0c0,0-0.7,0.3-0.6,1.6c0.1,0.7,0.4,2.7,0.4,2.7h-1.7
		L88,84.5C87.2,82.2,89.1,82.3,89.1,82.3"/>
	<path class="st1" d="M74.2,65.6c0-0.2,0.1-0.4,0.1-0.6c0.2-0.5,0.4-1.1-0.2-1.8c-0.5-0.5-1.3-0.8-2-0.6c-0.4,0.1-0.6,0.4-0.7,0.6
		c-0.1,0.2-0.1,0.2-0.2,0.2c0,0,0,0,0,0c0-0.1,0-0.2,0-0.3v0c0-0.1,0-0.2-0.1-0.3c0-0.1-0.1-0.2-0.2-0.3c0-0.1-0.1-0.1-0.1-0.2
		c0,0,0,0,0,0c-0.1,0-0.1-0.1-0.2-0.1c0,0,0,0-0.1,0c-0.2-0.1-0.3-0.1-0.5-0.2h0c-0.1,0-0.2,0-0.3,0c-0.1,0-0.2,0-0.3,0
		c0,0,0,0-0.1,0c0,0-0.1-0.1-0.1-0.1c0,0,0,0,0,0c0-0.1,0-0.2,0.1-0.2l0.1-0.1c0.2-0.2,0.2-0.5,0.2-0.8c0-0.2,0-0.3-0.1-0.5
		c0,0,0,0,0,0c-0.1-0.2-0.2-0.4-0.4-0.5c0,0,0,0,0,0c0,0,0,0,0,0c0,0-0.1-0.1-0.3-0.2c0,0,0,0-0.1,0h0c-0.1,0-0.2-0.1-0.3-0.1
		c0,0-0.1,0-0.2-0.1c-0.1,0-0.1-0.1-0.2-0.1c0,0-0.1-0.1-0.1-0.2c0-0.1,0-0.2-0.1-0.3c0-0.2-0.1-0.4-0.2-0.6c0,0,0-0.1-0.1-0.1
		c-0.3-0.6-1-1-1.7-1h0h0c-0.8,0-1.4,0.4-1.7,1c0,0,0,0.1-0.1,0.1c-0.1,0.2-0.1,0.4-0.2,0.6c0,0.1,0,0.2-0.1,0.3
		c0,0.1-0.1,0.1-0.1,0.2c-0.1,0.1-0.1,0.1-0.2,0.1c-0.1,0-0.1,0.1-0.2,0.1c-0.1,0-0.2,0.1-0.3,0.1h0c0,0,0,0-0.1,0
		c-0.2,0.1-0.3,0.2-0.3,0.2c0,0,0,0,0,0c0,0,0,0,0,0c-0.1,0.1-0.3,0.3-0.4,0.5c0,0,0,0,0,0c-0.1,0.2-0.1,0.3-0.1,0.5
		c0,0.3,0.1,0.6,0.2,0.8l0.1,0.1c0.1,0.1,0.1,0.2,0.1,0.2c0,0,0,0,0,0c0,0.1,0,0.1-0.1,0.1c0,0,0,0-0.1,0c-0.1,0-0.2,0-0.3,0
		c-0.1,0-0.2,0-0.3,0h0c-0.2,0-0.4,0.1-0.5,0.2c0,0,0,0,0,0c-0.1,0-0.1,0.1-0.2,0.1c0,0,0,0,0,0c-0.1,0.1-0.1,0.1-0.2,0.2
		c-0.1,0.1-0.1,0.2-0.2,0.3c0,0.1-0.1,0.2-0.1,0.3v0c0,0.1,0,0.2,0,0.3c0,0,0,0,0,0c-0.1,0-0.1-0.1-0.2-0.2
		c-0.1-0.2-0.3-0.5-0.7-0.6c-0.7-0.2-1.5,0-2,0.6c-0.6,0.7-0.4,1.3-0.2,1.8c0.1,0.2,0.1,0.4,0.1,0.6c0,0,0,0.1-0.1,0.1
		c-0.1,0.1-0.2,0.3-0.2,0.6c0,0.4,0.1,0.7,0.4,0.9c0.3,0.3,0.8,0.4,1.2,0.3l0.1,0c0.1,0,0.2,0,0.3,0.1c0,0,0.1,0.1,0.1,0.1
		c0,0.1,0,0.2-0.1,0.2c0,0-0.1,0.1-0.1,0.1c-0.2,0.1-0.4,0.3-0.5,0.6c-0.1,0.4-0.1,0.7,0.1,1c0.2,0.3,0.5,0.5,0.9,0.6
		c0.2,0,0.3,0,0.5,0c0.2,0,0.4,0,0.5,0.1c0.1,0.1,0.1,0.1,0.1,0.2c0,0.1,0,0.2-0.1,0.3c0,0.1-0.1,0.2-0.1,0.3c0,0.1-0.1,0.3-0.1,0.4
		c0,0-0.1,0-0.1,0.1c-0.4,0.4-0.6,1-0.5,1.5c0,0.3,0.2,0.6,0.3,0.9c0.2,0.3,0.6,0.6,0.9,0.7c0.2,0.1,0.4,0.1,0.5,0.1
		c0.1,0,0.2,0,0.3,0c0,0,0.1,0,0.1,0c0.1,0,0.2,0,0.2,0.1c0.1,0.1,0.1,0.2,0.1,0.2c0,0.1-0.1,0.2-0.2,0.3c-0.1,0.1-0.1,0.2-0.2,0.2
		C62,76.2,61.9,76.6,62,77c0.1,0.2,0.2,0.4,0.4,0.5c0.3,0.3,0.8,0.4,1.2,0.3l0.2-0.1c0.1,0,0.2,0,0.3,0c0.1,0,0.1,0.1,0.1,0.2
		c0,0.1,0,0.2-0.1,0.3c0,0.1-0.1,0.2-0.1,0.3c-0.1,0.3,0,0.8,0.2,1.1c0.1,0.2,0.3,0.3,0.5,0.4c0.1,0,0.2,0.1,0.3,0.1
		c0.3,0.1,0.7,0,1-0.2c0,0,0,0,0.1-0.1h0l0,0l0,0l0,0l0,0h0c0,0,0,0,0.1,0.1c0.3,0.2,0.6,0.3,1,0.2c0.1,0,0.2-0.1,0.3-0.1
		c0.2-0.1,0.4-0.2,0.5-0.4c0.2-0.3,0.3-0.7,0.2-1.1c0-0.1-0.1-0.2-0.1-0.3c0-0.1-0.1-0.2-0.1-0.3c0-0.1,0.1-0.2,0.1-0.2
		c0.1-0.1,0.2-0.1,0.3,0l0.2,0.1c0.4,0.1,0.9,0,1.2-0.3c0.2-0.1,0.3-0.3,0.4-0.5c0.1-0.4,0.1-0.8-0.1-1.1c-0.1-0.1-0.1-0.2-0.2-0.2
		c-0.1-0.1-0.2-0.2-0.2-0.3c0-0.1,0-0.2,0.1-0.2c0.1-0.1,0.2-0.1,0.2-0.1c0,0,0.1,0,0.1,0c0.1,0,0.2,0,0.3,0c0.2,0,0.4,0,0.5-0.1
		c0.4-0.1,0.7-0.4,0.9-0.7c0.2-0.3,0.3-0.6,0.4-0.9c0.1-0.6-0.1-1.1-0.5-1.5c0,0-0.1,0-0.1-0.1c0-0.2,0-0.3-0.1-0.4
		c0-0.1-0.1-0.2-0.1-0.3c-0.1-0.1-0.1-0.2-0.1-0.3c0-0.1,0.1-0.2,0.1-0.2c0.1-0.1,0.2-0.1,0.5-0.1c0.1,0,0.3,0,0.5,0
		c0.4-0.1,0.7-0.3,0.9-0.6c0.2-0.3,0.2-0.7,0.1-1c-0.1-0.3-0.3-0.5-0.5-0.6c-0.1,0-0.1-0.1-0.1-0.1c0-0.1-0.1-0.2-0.1-0.2
		c0,0,0-0.1,0.1-0.1c0.1-0.1,0.2-0.1,0.3-0.1l0.1,0c0.4,0.1,0.9,0,1.2-0.3c0.3-0.2,0.4-0.6,0.4-0.9C74.5,66.1,74.3,65.9,74.2,65.6
		C74.2,65.7,74.2,65.6,74.2,65.6 M73.4,66.3c0,0,0.1,0.1,0.1,0.1c0,0.1,0,0.1-0.1,0.2c-0.1,0.1-0.2,0.1-0.3,0.1L73,66.6
		c-0.4-0.1-0.9,0.1-1.2,0.5c-0.1,0.2-0.2,0.4-0.3,0.6c-0.1,0.4,0,0.8,0.3,1.1c0.1,0.1,0.1,0.1,0.2,0.2c0.1,0.1,0.2,0.2,0.2,0.2
		c0,0.1,0,0.2,0,0.2c0,0.1-0.1,0.1-0.2,0.2c-0.1,0-0.2,0-0.3,0c-0.3,0-0.7,0-1,0.3c-0.3,0.2-0.5,0.6-0.5,0.9c0,0.3,0.1,0.6,0.2,0.8
		c0,0.1,0.1,0.1,0.1,0.2c0,0.1,0,0.2,0,0.3c0,0-0.1,0.1-0.1,0.1c-0.1,0-0.2,0-0.3,0L69.9,72c-0.4-0.3-0.8-0.4-1.2-0.2
		c-0.3,0.1-0.6,0.4-0.7,0.7c-0.1,0.3-0.1,0.6,0,0.8c0,0.1,0,0.1,0,0.2c0,0.3,0.2,0.5,0.5,0.5h0c0.3,0,0.5-0.2,0.5-0.5
		c0-0.1,0-0.2,0-0.3c0-0.1,0-0.2,0-0.3c0-0.1,0.1-0.1,0.2-0.2c0.1,0,0.2,0,0.3,0l0.2,0.1c0.4,0.2,0.9,0.2,1.3,0
		c0.1,0,0.1-0.1,0.2-0.2c0.1,0.2,0.1,0.4,0.1,0.5c0,0.1-0.1,0.3-0.2,0.4c-0.1,0.2-0.3,0.3-0.4,0.3c-0.1,0-0.2,0-0.3,0.1
		c0,0-0.1,0-0.1,0c-0.1,0-0.2,0-0.2,0c-0.4,0-0.8,0.2-1,0.5c-0.2,0.3-0.3,0.7-0.2,1c0.1,0.3,0.2,0.5,0.4,0.7c0,0.1,0.1,0.1,0.1,0.2
		c0,0.1,0.1,0.2,0,0.3c0,0,0,0.1-0.1,0.1c-0.1,0.1-0.2,0.1-0.3,0.1l-0.1,0c-0.4-0.2-0.9-0.1-1.2,0.1c-0.3,0.2-0.5,0.5-0.5,0.9
		c0,0.3,0.1,0.6,0.2,0.8c0,0.1,0.1,0.1,0.1,0.2c0,0.1,0,0.2-0.1,0.2c0,0-0.1,0.1-0.1,0.1c-0.1,0-0.2,0-0.3,0c0,0-0.1,0-0.1,0
		c0-1.3,0-6.9,2.1-9c0.2-0.2,0.2-0.5,0-0.7c-0.2-0.2-0.5-0.2-0.7,0c-0.6,0.6-1.1,1.5-1.4,2.4V60c0-0.3-0.2-0.5-0.5-0.5
		c-0.3,0-0.5,0.2-0.5,0.5v11.8c-0.3-1-0.8-1.8-1.4-2.4c-0.2-0.2-0.5-0.2-0.7,0c-0.2,0.2-0.2,0.5,0,0.7c2.1,2.1,2.1,7.7,2.1,9
		c0,0-0.1,0-0.1,0c-0.1,0.1-0.2,0.1-0.3,0C65.1,79.1,65,79,65,79c0-0.1-0.1-0.2,0-0.2c0-0.1,0-0.1,0.1-0.2c0.1-0.2,0.2-0.4,0.1-0.8
		c0-0.3-0.2-0.7-0.5-0.9c-0.4-0.3-0.8-0.3-1.2-0.1l-0.1,0c-0.1,0-0.2,0-0.3-0.1c0,0-0.1-0.1-0.1-0.1c0-0.1,0-0.2,0-0.3
		c0-0.1,0.1-0.1,0.1-0.2c0.1-0.2,0.3-0.4,0.4-0.7c0.1-0.4,0-0.7-0.2-1c-0.2-0.3-0.6-0.5-1-0.5c-0.1,0-0.2,0-0.2,0c0,0-0.1,0-0.1,0
		c-0.1,0-0.2,0-0.3-0.1c-0.2-0.1-0.3-0.2-0.4-0.3c-0.1-0.1-0.2-0.3-0.2-0.4c0-0.2,0-0.4,0.1-0.5c0.1,0.1,0.1,0.1,0.2,0.2
		c0.4,0.2,0.9,0.2,1.3,0l0.2-0.1c0.1-0.1,0.2-0.1,0.3,0c0.1,0,0.1,0.1,0.2,0.2c0,0.1,0,0.2,0,0.3c0,0.1,0,0.2,0,0.3
		c0,0.3,0.2,0.5,0.5,0.5h0c0.3,0,0.5-0.2,0.5-0.5c0-0.1,0-0.1,0-0.2c0-0.2,0.1-0.5,0-0.8c-0.1-0.3-0.4-0.6-0.7-0.7
		c-0.4-0.2-0.9-0.1-1.2,0.2l-0.1,0.1c-0.1,0-0.2,0-0.3,0c-0.1,0-0.1-0.1-0.1-0.1c0-0.1-0.1-0.2,0-0.3c0-0.1,0.1-0.1,0.1-0.2
		c0.1-0.2,0.2-0.5,0.2-0.8c0-0.4-0.2-0.7-0.5-0.9c-0.4-0.3-0.7-0.3-1-0.3c-0.1,0-0.2,0-0.3,0c-0.1,0-0.2-0.1-0.2-0.2
		c0,0-0.1-0.1,0-0.2c0-0.1,0.1-0.1,0.2-0.2c0.1-0.1,0.2-0.1,0.2-0.2c0.2-0.3,0.4-0.7,0.3-1.1c0-0.2-0.1-0.4-0.3-0.6
		c-0.3-0.3-0.7-0.5-1.2-0.5l-0.2,0.1c-0.1,0-0.2,0-0.3-0.1c-0.1-0.1-0.1-0.1-0.1-0.2c0,0,0-0.1,0.1-0.1c0.1-0.1,0.2-0.4,0.2-0.6
		c0-0.3-0.1-0.6-0.2-0.9c-0.2-0.5-0.2-0.6,0-0.9c0.2-0.2,0.6-0.4,1-0.3c0.1,0,0.1,0.1,0.2,0.2c0.1,0.2,0.3,0.5,0.8,0.6
		c0.2,0.1,0.4,0,0.6,0c0.1,0,0.1,0,0.2,0c0.1,0,0.1,0.1,0.2,0.2c0,0.1,0,0.2,0,0.3L61.4,65l0,0.1c-0.2,0.4-0.2,0.9,0,1.3
		c0.1,0.2,0.3,0.4,0.4,0.5c0.3,0.2,0.7,0.3,1.1,0.1c0.1,0,0.2-0.1,0.3-0.1c0.1-0.1,0.2-0.1,0.3-0.1c0.1,0,0.2,0.1,0.2,0.1
		c0.1,0.1,0.1,0.2,0.1,0.3c0,0.1-0.1,0.2-0.1,0.3c-0.1,0.3-0.2,0.6-0.1,1.1c0.1,0.3,0.3,0.4,0.6,0.3c0.3-0.1,0.4-0.3,0.3-0.6
		c0-0.1,0-0.2,0.1-0.5c0.1-0.1,0.1-0.3,0.1-0.5c0.1-0.4,0-0.7-0.2-1c-0.2-0.3-0.5-0.5-0.9-0.5c-0.3,0-0.6,0.1-0.8,0.2
		c-0.1,0-0.1,0.1-0.2,0.1c-0.1,0-0.2,0-0.3,0c0,0-0.1-0.1-0.1-0.1c0-0.1-0.1-0.2,0-0.3l0.1-0.1c0.3-0.4,0.3-0.8,0.2-1.2
		c-0.1-0.2-0.2-0.3-0.3-0.4c0-0.1-0.1-0.2-0.2-0.3c-0.1-0.1-0.1-0.2-0.1-0.3c0,0,0-0.1,0-0.1c0,0,0,0,0-0.1c0,0,0,0,0,0
		c0,0,0,0,0.1-0.1c0,0,0,0,0,0c0,0,0,0,0.1,0c0.1,0,0.1,0,0.2,0c0.2,0,0.5,0,0.8-0.1c0.1,0,0.1-0.1,0.2-0.1c0.2-0.1,0.3-0.3,0.4-0.4
		c0-0.1,0.1-0.2,0.1-0.2c0-0.1,0-0.2,0-0.2c0,0,0,0,0-0.1c0,0,0,0,0,0c0-0.3-0.1-0.6-0.3-0.9l0,0c0,0,0,0,0,0l-0.1-0.1
		c0,0,0,0,0-0.1c0-0.1,0-0.2,0-0.2c0,0,0,0,0,0c0,0,0.1-0.1,0.1-0.1c0,0,0.1-0.1,0.1-0.1c0,0,0.1,0,0.2-0.1c0.1,0,0.3-0.1,0.4-0.2
		c0.2-0.1,0.3-0.2,0.4-0.3c0.2-0.2,0.3-0.4,0.4-0.7c0-0.1,0.1-0.3,0.1-0.4c0-0.2,0.1-0.3,0.1-0.5c0.2-0.3,0.4-0.4,0.6-0.5
		c0.1,0,0.1,0,0.1,0c0,0,0.1,0,0.1,0c0.1,0,0.1,0,0.2,0c0.2,0,0.5,0.2,0.7,0.5c0.1,0.1,0.1,0.3,0.1,0.5c0,0.1,0,0.3,0.1,0.4
		c0.1,0.2,0.2,0.5,0.4,0.7c0.1,0.1,0.2,0.2,0.4,0.3c0.1,0.1,0.2,0.1,0.4,0.2c0.1,0,0.1,0,0.2,0.1c0.1,0,0.1,0.1,0.1,0.1
		c0,0,0.1,0.1,0.1,0.1c0,0,0,0,0,0c0,0.1,0,0.2,0,0.2c0,0,0,0,0,0.1l-0.1,0.1v0l0,0c-0.2,0.2-0.3,0.6-0.3,0.9c0,0,0,0,0,0
		c0,0,0,0,0,0.1c0,0.1,0,0.2,0,0.2c0,0.1,0.1,0.2,0.1,0.2c0.1,0.2,0.2,0.3,0.4,0.4c0.1,0,0.1,0.1,0.2,0.1c0.3,0.1,0.6,0.1,0.8,0.1
		c0.1,0,0.1,0,0.2,0c0,0,0,0,0.1,0c0,0,0,0,0,0c0,0,0,0,0.1,0.1c0,0,0,0,0,0c0,0,0,0,0,0.1c0,0,0,0,0,0.1c0,0.1,0,0.2-0.1,0.3
		c-0.1,0.1-0.1,0.2-0.2,0.3c-0.1,0.1-0.2,0.3-0.3,0.4c-0.2,0.4-0.1,0.9,0.2,1.2l0.1,0.1c0,0.1,0,0.2,0,0.3c0,0-0.1,0.1-0.1,0.1
		c-0.1,0-0.2,0.1-0.3,0c-0.1,0-0.1-0.1-0.2-0.1c-0.2-0.1-0.4-0.2-0.8-0.2c-0.4,0-0.7,0.2-0.9,0.5c-0.2,0.3-0.3,0.7-0.2,1
		c0,0.2,0.1,0.3,0.1,0.5c0.1,0.2,0.1,0.3,0.1,0.5c-0.1,0.3,0.1,0.5,0.3,0.6c0.3,0.1,0.5-0.1,0.6-0.3c0.1-0.4,0-0.8-0.1-1.1
		c0-0.1-0.1-0.2-0.1-0.3c0-0.1,0-0.2,0.1-0.3c0,0,0.1-0.1,0.2-0.1c0.1,0,0.2,0.1,0.3,0.1c0.1,0,0.2,0.1,0.3,0.1
		c0.3,0.1,0.8,0.1,1.1-0.1c0.2-0.1,0.3-0.3,0.4-0.5c0.2-0.4,0.2-0.9,0-1.3l0-0.1l-0.1-0.1c0-0.1-0.1-0.2,0-0.3
		c0-0.1,0.1-0.1,0.2-0.2c0,0,0.1,0,0.2,0c0.1,0,0.3,0.1,0.6,0c0.5-0.1,0.7-0.4,0.8-0.6c0.1-0.1,0.1-0.2,0.2-0.2c0.3-0.1,0.8,0,1,0.3
		c0.2,0.3,0.2,0.4,0,0.9c-0.1,0.3-0.2,0.5-0.2,0.9C73.2,65.9,73.3,66.1,73.4,66.3"/>
	<polygon class="st1" points="1.5,66.8 1.8,64.4 11.5,62.6 2.5,58.3 2.7,56.4 12.5,54.5 3.6,50.3 3.9,48 16,54 15.8,55.9 6.3,57.9 
		15,62.1 14.7,64 	"/>
	<polygon class="st1" points="6.3,42.3 7.2,40.3 12,42.6 14.6,37.2 9.9,34.9 10.9,32.8 22.3,38.4 21.3,40.4 16.5,38.1 13.9,43.5 
		18.7,45.9 17.7,47.9 	"/>
	
		<rect x="18.9" y="24.6" transform="matrix(0.5997 -0.8002 0.8002 0.5997 -16.7501 28.405)" class="st1" width="2.2" height="12.7"/>
	<polygon class="st1" points="22.9,21.2 19.9,24 18.5,22.4 26,15.4 27.4,16.9 24.5,19.6 31.8,27.4 30.2,28.9 	"/>
	<polygon class="st1" points="30.3,12.3 38.4,7.6 39.4,9.3 33.2,12.9 34.9,15.8 40.4,12.6 41.4,14.3 35.9,17.5 37.6,20.4 43.9,16.8 
		44.9,18.5 36.7,23.3 	"/>
	<polygon class="st1" points="50.5,3.2 59.8,1.5 60.1,3.5 53.1,4.8 53.6,8 59.9,6.9 60.3,8.9 54,10 54.6,13.4 61.8,12.1 62.1,14 
		52.8,15.7 	"/>
	<polygon class="st1" points="65.3,1.3 67.6,1.4 67.1,12.1 73.7,12.4 73.7,14.4 64.7,14 	"/>
	<polygon class="st1" points="79.3,2.6 88.4,5.1 87.9,7 81,5.1 80.1,8.3 86.2,10 85.7,11.9 79.5,10.2 78.6,13.5 85.6,15.4 
		85.1,17.4 75.9,14.8 	"/>
	<path class="st1" d="M93.6,7.3L98,9.8c2.6,1.4,3.4,3.8,2.2,6.1l0,0c-1.4,2.5-4.1,2.7-6.6,1.3L91.4,16l-2,3.6l-2-1.1L93.6,7.3z
		 M94.6,15.5c1.5,0.8,2.9,0.5,3.5-0.6l0,0c0.7-1.3,0.2-2.5-1.3-3.3l-2.3-1.3l-2.2,4L94.6,15.5z"/>
	<polygon class="st1" points="106.5,15.3 108.2,16.8 104.5,20.7 108.9,24.8 112.6,21 114.2,22.5 105.5,31.8 103.9,30.2 107.5,26.3 
		103.1,22.2 99.4,26.1 97.8,24.5 	"/>
	<path class="st1" d="M120.7,31.4l1.1,1.8l-8,11.4l-1.2-2l2-2.7l-3.1-5.1l-3.3,0.5l-1.2-2L120.7,31.4z M115.8,38.1l3.2-4.5l-5.5,0.8
		L115.8,38.1z"/>
	<polygon class="st1" points="126.7,43.1 127.3,45.1 120.6,54 129.1,51.7 129.7,53.8 117.4,57.2 116.9,55.4 123.8,46.2 115,48.6 
		114.5,46.5 	"/>
	<polygon class="st1" points="128.4,63.3 128.3,59.3 130.4,59.2 130.6,69.6 128.5,69.6 128.4,65.6 117.8,65.7 117.8,63.5 	"/>
	<polygon class="st1" points="11.2,79.8 11.4,80.4 5.4,85.4 13.1,85.1 13.3,85.6 7.2,90.3 14.9,90.3 15.1,90.9 6.3,90.9 6.2,90.4 
		12.1,85.7 4.5,85.9 4.4,85.4 	"/>
	<polygon class="st1" points="16.4,92.9 19.5,97.9 19,98.2 16.3,93.7 13.5,95.4 15.9,99.4 15.4,99.7 13,95.7 10.2,97.4 12.9,101.9 
		12.4,102.2 9.4,97.2 	"/>
	<polygon class="st1" points="21.1,100.2 21.5,100.6 15.5,105.5 18.6,109.2 18.2,109.6 14.7,105.4 	"/>
	<polygon class="st1" points="26.3,106.2 26.8,106.6 21.6,112.3 25.2,115.5 24.8,115.9 20.8,112.3 	"/>
	<polygon class="st1" points="32.3,111.5 32.8,111.8 33.6,120.9 37.5,114.9 38,115.2 33.5,122.1 33.1,121.8 32.3,112.5 28.2,118.6 
		27.8,118.3 	"/>
	<polygon class="st1" points="40.8,116.7 46.1,119.1 45.9,119.6 41.1,117.5 39.8,120.4 44.1,122.3 43.8,122.9 39.5,120.9 
		38.2,123.9 43,126.1 42.8,126.6 37.4,124.2 	"/>
	<path class="st1" d="M46.3,126.6l0.5-0.3c0.6,1,1.3,1.6,2.5,2c1.2,0.3,2.2-0.1,2.4-1l0,0c0.2-0.8-0.1-1.4-1.8-2.3
		c-1.8-0.9-2.4-1.8-2.1-3l0,0c0.3-1.2,1.7-1.8,3.1-1.4c1.2,0.3,1.8,0.8,2.5,1.7l-0.5,0.4c-0.6-0.9-1.2-1.3-2.1-1.6
		c-1.2-0.3-2.1,0.1-2.4,1l0,0c-0.2,0.8,0.1,1.5,1.8,2.4c1.7,0.9,2.3,1.8,2,2.9l0,0c-0.4,1.3-1.7,1.9-3.2,1.4
		C47.9,128.4,47,127.7,46.3,126.6"/>
	<path class="st1" d="M55.2,128.9l0.5-0.4c0.8,0.9,1.6,1.4,2.8,1.6c1.2,0.2,2.2-0.4,2.3-1.4l0,0c0.1-0.9-0.3-1.4-2.1-2
		c-1.9-0.6-2.6-1.4-2.5-2.6l0,0c0.2-1.2,1.4-2,2.9-1.8c1.2,0.2,1.9,0.6,2.7,1.3l-0.4,0.4c-0.7-0.8-1.4-1.1-2.3-1.2
		c-1.2-0.2-2.1,0.4-2.2,1.3l0,0c-0.1,0.9,0.3,1.4,2.2,2.1c1.8,0.6,2.6,1.4,2.4,2.6l0,0c-0.2,1.3-1.4,2.1-3,1.9
		C57,130.4,56,129.9,55.2,128.9"/>
	<path class="st1" d="M69.2,122.7l3-0.3c1.8-0.2,3.1,0.6,3.3,2.2l0,0c0.2,1.7-1.2,2.8-2.9,2.9l-2.2,0.2l0.3,3.1l-0.6,0.1L69.2,122.7
		z M72.5,127c1.5-0.1,2.5-1,2.4-2.3l0,0c-0.1-1.3-1.2-1.9-2.7-1.7l-2.3,0.2l0.4,4L72.5,127z"/>
	<path class="st1" d="M77.7,121.7l3.3-0.9c1-0.3,1.8-0.2,2.4,0.2c0.5,0.3,0.8,0.8,1,1.3l0,0c0.3,1.3-0.4,2.4-1.7,2.9l3.5,2.7
		l-0.8,0.2l-3.4-2.6l-2.6,0.7l0.9,3.3l-0.6,0.2L77.7,121.7z M82.1,124.9c1.3-0.3,2.1-1.3,1.8-2.4l0,0c-0.3-1.1-1.3-1.5-2.7-1.1
		l-2.7,0.7l0.9,3.6L82.1,124.9z"/>
	<path class="st1" d="M87.9,123.1L87.9,123.1c-0.9-2.1-0.3-4.6,2-5.6c2.3-1,4.6,0.1,5.5,2.1l0,0c0.9,2,0.3,4.6-2,5.6
		C91.1,126.2,88.8,125.1,87.9,123.1 M94.8,119.9L94.8,119.9c-0.9-1.9-2.9-2.8-4.8-1.9c-1.8,0.9-2.5,3-1.6,4.8l0,0
		c0.9,1.8,2.9,2.7,4.7,1.9C95,123.8,95.7,121.7,94.8,119.9"/>
	<path class="st1" d="M96,114.4l2.2-1.6c2.1-1.5,4.6-1.1,5.9,0.8l0,0c1.3,1.9,0.9,4.4-1.2,5.9l-2.2,1.6L96,114.4z M96.8,114.6
		l4.1,5.8l1.7-1.2c1.9-1.3,2.2-3.4,1-5l0,0c-1.1-1.6-3.2-2.1-5.1-0.8L96.8,114.6z"/>
	<path class="st1" d="M107.2,112.1l-3.4-3.4l0.4-0.4l3.4,3.4c1.4,1.4,2.9,1.4,4.1,0.2c1.2-1.2,1.2-2.7-0.2-4.1l-3.4-3.4l0.4-0.4
		l3.3,3.4c1.7,1.7,1.6,3.5,0.2,4.9C110.7,113.6,108.8,113.7,107.2,112.1"/>
	<path class="st1" d="M113.6,104.3L113.6,104.3c-1.9-1.4-2.5-3.9-1.1-5.8c0.9-1.2,1.8-1.6,2.9-1.8l0.1,0.6c-1,0.2-1.9,0.5-2.6,1.6
		c-1.2,1.6-0.7,3.8,1,5l0,0c1.7,1.2,3.9,0.9,5-0.7c0.7-1,0.8-1.9,0.6-3.1l0.6-0.1c0.2,1.2,0.1,2.3-0.7,3.5
		C118.1,105.4,115.5,105.7,113.6,104.3"/>
	<polygon class="st1" points="117.2,92.1 115.9,94.6 115.4,94.4 118.3,88.7 118.8,88.9 117.5,91.5 124.3,94.9 124.1,95.5 	"/>
	<path class="st1" d="M125.6,89.2l-0.3-0.5c1.1-0.6,1.7-1.3,2.1-2.4c0.4-1.2,0-2.2-0.9-2.5l0,0c-0.8-0.3-1.5,0-2.4,1.7
		c-1,1.8-1.9,2.3-3.1,1.9l0,0c-1.2-0.4-1.7-1.7-1.2-3.2c0.4-1.1,0.9-1.8,1.8-2.4l0.3,0.5c-0.9,0.5-1.4,1.2-1.7,2
		c-0.4,1.1,0,2.1,0.8,2.4l0,0c0.8,0.3,1.5,0,2.5-1.7c1-1.7,1.9-2.2,3-1.9l0,0c1.3,0.4,1.8,1.8,1.3,3.3
		C127.5,87.7,126.8,88.5,125.6,89.2"/>
</g>
</svg>
